<mxfile host="Electron" modified="2023-05-01T21:49:24.120Z" agent="Mozilla/5.0 (Windows NT 10.0; Win64; x64) AppleWebKit/537.36 (KHTML, like Gecko) draw.io/21.2.1 Chrome/112.0.5615.87 Electron/24.1.2 Safari/537.36" etag="lwxGUp2DHbIK6DjAQduY" version="21.2.1" type="device">
  <diagram name="Page-1" id="kJ3Zu6kZYRl41vvSlFNl">
    <mxGraphModel dx="562" dy="1226" grid="1" gridSize="10" guides="1" tooltips="1" connect="1" arrows="1" fold="1" page="1" pageScale="1" pageWidth="850" pageHeight="1100" math="0" shadow="0">
      <root>
        <mxCell id="0" />
        <mxCell id="1" parent="0" />
        <mxCell id="Of7o2EQ1QcCwlkbmsnM9-1" value="" style="shape=umlLifeline;perimeter=lifelinePerimeter;whiteSpace=wrap;html=1;container=1;dropTarget=0;collapsible=0;recursiveResize=0;outlineConnect=0;portConstraint=eastwest;newEdgeStyle={&quot;edgeStyle&quot;:&quot;elbowEdgeStyle&quot;,&quot;elbow&quot;:&quot;vertical&quot;,&quot;curved&quot;:0,&quot;rounded&quot;:0};participant=umlActor;" vertex="1" parent="1">
          <mxGeometry x="70" y="70" width="20" height="1390" as="geometry" />
        </mxCell>
        <mxCell id="Of7o2EQ1QcCwlkbmsnM9-2" value="Πελάτης" style="text;html=1;align=center;verticalAlign=middle;resizable=0;points=[];autosize=1;strokeColor=none;fillColor=none;" vertex="1" parent="1">
          <mxGeometry x="45" y="40" width="70" height="30" as="geometry" />
        </mxCell>
        <mxCell id="Of7o2EQ1QcCwlkbmsnM9-3" value="" style="shape=umlLifeline;perimeter=lifelinePerimeter;whiteSpace=wrap;html=1;container=1;dropTarget=0;collapsible=0;recursiveResize=0;outlineConnect=0;portConstraint=eastwest;newEdgeStyle={&quot;edgeStyle&quot;:&quot;elbowEdgeStyle&quot;,&quot;elbow&quot;:&quot;vertical&quot;,&quot;curved&quot;:0,&quot;rounded&quot;:0};participant=umlBoundary;" vertex="1" parent="1">
          <mxGeometry x="230" y="70" width="50" height="1370" as="geometry" />
        </mxCell>
        <mxCell id="Of7o2EQ1QcCwlkbmsnM9-5" value="" style="html=1;points=[];perimeter=orthogonalPerimeter;outlineConnect=0;targetShapes=umlLifeline;portConstraint=eastwest;newEdgeStyle={&quot;edgeStyle&quot;:&quot;elbowEdgeStyle&quot;,&quot;elbow&quot;:&quot;vertical&quot;,&quot;curved&quot;:0,&quot;rounded&quot;:0};" vertex="1" parent="Of7o2EQ1QcCwlkbmsnM9-3">
          <mxGeometry x="20" y="80" width="10" height="50" as="geometry" />
        </mxCell>
        <mxCell id="Of7o2EQ1QcCwlkbmsnM9-4" value="Κύρια Οθόνη" style="text;html=1;align=center;verticalAlign=middle;resizable=0;points=[];autosize=1;strokeColor=none;fillColor=none;" vertex="1" parent="1">
          <mxGeometry x="210" y="40" width="90" height="30" as="geometry" />
        </mxCell>
        <mxCell id="Of7o2EQ1QcCwlkbmsnM9-6" value="add_code()" style="html=1;verticalAlign=bottom;startArrow=oval;endArrow=block;startSize=8;edgeStyle=elbowEdgeStyle;elbow=vertical;curved=0;rounded=0;" edge="1" target="Of7o2EQ1QcCwlkbmsnM9-5" parent="1" source="Of7o2EQ1QcCwlkbmsnM9-1">
          <mxGeometry relative="1" as="geometry">
            <mxPoint x="190" y="150" as="sourcePoint" />
            <Array as="points">
              <mxPoint x="140" y="150" />
            </Array>
          </mxGeometry>
        </mxCell>
        <mxCell id="Of7o2EQ1QcCwlkbmsnM9-7" value="" style="shape=umlLifeline;perimeter=lifelinePerimeter;whiteSpace=wrap;html=1;container=1;dropTarget=0;collapsible=0;recursiveResize=0;outlineConnect=0;portConstraint=eastwest;newEdgeStyle={&quot;edgeStyle&quot;:&quot;elbowEdgeStyle&quot;,&quot;elbow&quot;:&quot;vertical&quot;,&quot;curved&quot;:0,&quot;rounded&quot;:0};participant=umlEntity;" vertex="1" parent="1">
          <mxGeometry x="380" y="70" width="40" height="1380" as="geometry" />
        </mxCell>
        <mxCell id="Of7o2EQ1QcCwlkbmsnM9-9" value="" style="html=1;points=[];perimeter=orthogonalPerimeter;outlineConnect=0;targetShapes=umlLifeline;portConstraint=eastwest;newEdgeStyle={&quot;edgeStyle&quot;:&quot;elbowEdgeStyle&quot;,&quot;elbow&quot;:&quot;vertical&quot;,&quot;curved&quot;:0,&quot;rounded&quot;:0};" vertex="1" parent="Of7o2EQ1QcCwlkbmsnM9-7">
          <mxGeometry x="15" y="130" width="10" height="60" as="geometry" />
        </mxCell>
        <mxCell id="Of7o2EQ1QcCwlkbmsnM9-8" value="Ε.Σ.Υ&lt;br&gt;(Εθνικό Σύστημα Υγείας)" style="text;html=1;align=center;verticalAlign=middle;resizable=0;points=[];autosize=1;strokeColor=none;fillColor=none;" vertex="1" parent="1">
          <mxGeometry x="325" y="30" width="150" height="40" as="geometry" />
        </mxCell>
        <mxCell id="Of7o2EQ1QcCwlkbmsnM9-10" value="check_code()" style="html=1;verticalAlign=bottom;startArrow=oval;endArrow=block;startSize=8;edgeStyle=elbowEdgeStyle;elbow=vertical;curved=0;rounded=0;" edge="1" target="Of7o2EQ1QcCwlkbmsnM9-9" parent="1" source="Of7o2EQ1QcCwlkbmsnM9-5">
          <mxGeometry relative="1" as="geometry">
            <mxPoint x="320" y="190" as="sourcePoint" />
            <Array as="points">
              <mxPoint x="340" y="200" />
            </Array>
          </mxGeometry>
        </mxCell>
        <mxCell id="Of7o2EQ1QcCwlkbmsnM9-11" value="alternative" style="shape=umlFrame;whiteSpace=wrap;html=1;pointerEvents=0;fillColor=#f8cecc;strokeColor=#b85450;" vertex="1" parent="1">
          <mxGeometry x="10" y="220" width="470" height="260" as="geometry" />
        </mxCell>
        <mxCell id="Of7o2EQ1QcCwlkbmsnM9-12" value="wrong_code()" style="html=1;verticalAlign=bottom;endArrow=open;dashed=1;endSize=8;edgeStyle=elbowEdgeStyle;elbow=vertical;curved=0;rounded=0;" edge="1" parent="1" source="Of7o2EQ1QcCwlkbmsnM9-9" target="Of7o2EQ1QcCwlkbmsnM9-3">
          <mxGeometry relative="1" as="geometry">
            <mxPoint x="380" y="250" as="sourcePoint" />
            <mxPoint x="300" y="250" as="targetPoint" />
            <Array as="points">
              <mxPoint x="300" y="260" />
            </Array>
          </mxGeometry>
        </mxCell>
        <mxCell id="Of7o2EQ1QcCwlkbmsnM9-13" value="" style="html=1;points=[];perimeter=orthogonalPerimeter;outlineConnect=0;targetShapes=umlLifeline;portConstraint=eastwest;newEdgeStyle={&quot;edgeStyle&quot;:&quot;elbowEdgeStyle&quot;,&quot;elbow&quot;:&quot;vertical&quot;,&quot;curved&quot;:0,&quot;rounded&quot;:0};" vertex="1" parent="1">
          <mxGeometry x="250" y="260" width="10" height="30" as="geometry" />
        </mxCell>
        <mxCell id="Of7o2EQ1QcCwlkbmsnM9-17" value="" style="shape=umlLifeline;perimeter=lifelinePerimeter;whiteSpace=wrap;html=1;container=1;dropTarget=0;collapsible=0;recursiveResize=0;outlineConnect=0;portConstraint=eastwest;newEdgeStyle={&quot;edgeStyle&quot;:&quot;elbowEdgeStyle&quot;,&quot;elbow&quot;:&quot;vertical&quot;,&quot;curved&quot;:0,&quot;rounded&quot;:0};participant=umlEntity;" vertex="1" parent="1">
          <mxGeometry x="520" y="70" width="40" height="1380" as="geometry" />
        </mxCell>
        <mxCell id="Of7o2EQ1QcCwlkbmsnM9-23" value="" style="html=1;points=[];perimeter=orthogonalPerimeter;outlineConnect=0;targetShapes=umlLifeline;portConstraint=eastwest;newEdgeStyle={&quot;edgeStyle&quot;:&quot;elbowEdgeStyle&quot;,&quot;elbow&quot;:&quot;vertical&quot;,&quot;curved&quot;:0,&quot;rounded&quot;:0};" vertex="1" parent="Of7o2EQ1QcCwlkbmsnM9-17">
          <mxGeometry x="15" y="300" width="10" height="60" as="geometry" />
        </mxCell>
        <mxCell id="Of7o2EQ1QcCwlkbmsnM9-18" value="προϊόντα" style="text;html=1;align=center;verticalAlign=middle;resizable=0;points=[];autosize=1;strokeColor=none;fillColor=none;" vertex="1" parent="1">
          <mxGeometry x="505" y="35" width="70" height="30" as="geometry" />
        </mxCell>
        <mxCell id="Of7o2EQ1QcCwlkbmsnM9-19" value="wrong&amp;nbsp; code" style="text;html=1;align=center;verticalAlign=middle;resizable=0;points=[];autosize=1;strokeColor=none;fillColor=none;" vertex="1" parent="1">
          <mxGeometry y="260" width="90" height="30" as="geometry" />
        </mxCell>
        <mxCell id="Of7o2EQ1QcCwlkbmsnM9-20" value="" style="endArrow=none;html=1;rounded=0;entryX=1;entryY=0.378;entryDx=0;entryDy=0;entryPerimeter=0;exitX=0;exitY=0.378;exitDx=0;exitDy=0;exitPerimeter=0;fillColor=#f8cecc;strokeColor=#b85450;" edge="1" parent="1" source="Of7o2EQ1QcCwlkbmsnM9-11" target="Of7o2EQ1QcCwlkbmsnM9-11">
          <mxGeometry width="50" height="50" relative="1" as="geometry">
            <mxPoint x="250" y="330" as="sourcePoint" />
            <mxPoint x="300" y="280" as="targetPoint" />
          </mxGeometry>
        </mxCell>
        <mxCell id="Of7o2EQ1QcCwlkbmsnM9-21" value="" style="html=1;points=[];perimeter=orthogonalPerimeter;outlineConnect=0;targetShapes=umlLifeline;portConstraint=eastwest;newEdgeStyle={&quot;edgeStyle&quot;:&quot;elbowEdgeStyle&quot;,&quot;elbow&quot;:&quot;vertical&quot;,&quot;curved&quot;:0,&quot;rounded&quot;:0};" vertex="1" parent="1">
          <mxGeometry x="395" y="320" width="10" height="50" as="geometry" />
        </mxCell>
        <mxCell id="Of7o2EQ1QcCwlkbmsnM9-22" value="search_products()" style="html=1;verticalAlign=bottom;startArrow=oval;startFill=1;endArrow=block;startSize=8;edgeStyle=elbowEdgeStyle;elbow=vertical;curved=0;rounded=0;" edge="1" parent="1" source="Of7o2EQ1QcCwlkbmsnM9-7" target="Of7o2EQ1QcCwlkbmsnM9-17">
          <mxGeometry width="60" relative="1" as="geometry">
            <mxPoint x="415" y="370" as="sourcePoint" />
            <mxPoint x="475" y="370" as="targetPoint" />
            <Array as="points">
              <mxPoint x="510" y="370" />
            </Array>
          </mxGeometry>
        </mxCell>
        <mxCell id="Of7o2EQ1QcCwlkbmsnM9-24" value="" style="shape=umlLifeline;perimeter=lifelinePerimeter;whiteSpace=wrap;html=1;container=1;dropTarget=0;collapsible=0;recursiveResize=0;outlineConnect=0;portConstraint=eastwest;newEdgeStyle={&quot;edgeStyle&quot;:&quot;elbowEdgeStyle&quot;,&quot;elbow&quot;:&quot;vertical&quot;,&quot;curved&quot;:0,&quot;rounded&quot;:0};participant=umlEntity;" vertex="1" parent="1">
          <mxGeometry x="660" y="70" width="40" height="1460" as="geometry" />
        </mxCell>
        <mxCell id="Of7o2EQ1QcCwlkbmsnM9-27" value="" style="html=1;points=[];perimeter=orthogonalPerimeter;outlineConnect=0;targetShapes=umlLifeline;portConstraint=eastwest;newEdgeStyle={&quot;edgeStyle&quot;:&quot;elbowEdgeStyle&quot;,&quot;elbow&quot;:&quot;vertical&quot;,&quot;curved&quot;:0,&quot;rounded&quot;:0};" vertex="1" parent="Of7o2EQ1QcCwlkbmsnM9-24">
          <mxGeometry x="15" y="360" width="10" height="50" as="geometry" />
        </mxCell>
        <mxCell id="Of7o2EQ1QcCwlkbmsnM9-25" value="προσωρινό &lt;br&gt;καλάθι" style="text;html=1;align=center;verticalAlign=middle;resizable=0;points=[];autosize=1;strokeColor=none;fillColor=none;" vertex="1" parent="1">
          <mxGeometry x="640" y="25" width="80" height="40" as="geometry" />
        </mxCell>
        <mxCell id="Of7o2EQ1QcCwlkbmsnM9-26" value="make_temp_basket()" style="html=1;verticalAlign=bottom;startArrow=oval;startFill=1;endArrow=block;startSize=8;edgeStyle=elbowEdgeStyle;elbow=vertical;curved=0;rounded=0;" edge="1" parent="1" source="Of7o2EQ1QcCwlkbmsnM9-17" target="Of7o2EQ1QcCwlkbmsnM9-24">
          <mxGeometry x="0.0083" width="60" relative="1" as="geometry">
            <mxPoint x="575" y="430" as="sourcePoint" />
            <mxPoint x="635" y="430" as="targetPoint" />
            <Array as="points">
              <mxPoint x="620" y="430" />
            </Array>
            <mxPoint x="1" as="offset" />
          </mxGeometry>
        </mxCell>
        <mxCell id="Of7o2EQ1QcCwlkbmsnM9-28" value="" style="shape=umlLifeline;perimeter=lifelinePerimeter;whiteSpace=wrap;html=1;container=1;dropTarget=0;collapsible=0;recursiveResize=0;outlineConnect=0;portConstraint=eastwest;newEdgeStyle={&quot;edgeStyle&quot;:&quot;elbowEdgeStyle&quot;,&quot;elbow&quot;:&quot;vertical&quot;,&quot;curved&quot;:0,&quot;rounded&quot;:0};participant=umlEntity;" vertex="1" parent="1">
          <mxGeometry x="800" y="70" width="40" height="1370" as="geometry" />
        </mxCell>
        <mxCell id="Of7o2EQ1QcCwlkbmsnM9-31" value="" style="html=1;points=[];perimeter=orthogonalPerimeter;outlineConnect=0;targetShapes=umlLifeline;portConstraint=eastwest;newEdgeStyle={&quot;edgeStyle&quot;:&quot;elbowEdgeStyle&quot;,&quot;elbow&quot;:&quot;vertical&quot;,&quot;curved&quot;:0,&quot;rounded&quot;:0};" vertex="1" parent="Of7o2EQ1QcCwlkbmsnM9-28">
          <mxGeometry x="15" y="410" width="10" height="100" as="geometry" />
        </mxCell>
        <mxCell id="Of7o2EQ1QcCwlkbmsnM9-29" value="φαρμακεία" style="text;html=1;align=center;verticalAlign=middle;resizable=0;points=[];autosize=1;strokeColor=none;fillColor=none;" vertex="1" parent="1">
          <mxGeometry x="780" y="40" width="80" height="30" as="geometry" />
        </mxCell>
        <mxCell id="Of7o2EQ1QcCwlkbmsnM9-30" value="find_pharmacies()" style="html=1;verticalAlign=bottom;startArrow=oval;startFill=1;endArrow=block;startSize=8;edgeStyle=elbowEdgeStyle;elbow=vertical;curved=0;rounded=0;" edge="1" parent="1" source="Of7o2EQ1QcCwlkbmsnM9-27" target="Of7o2EQ1QcCwlkbmsnM9-28">
          <mxGeometry width="60" relative="1" as="geometry">
            <mxPoint x="720" y="480" as="sourcePoint" />
            <mxPoint x="780" y="480" as="targetPoint" />
            <Array as="points">
              <mxPoint x="790" y="480" />
            </Array>
          </mxGeometry>
        </mxCell>
        <mxCell id="Of7o2EQ1QcCwlkbmsnM9-33" value="get_sum_for_each()" style="html=1;align=left;spacingLeft=2;endArrow=block;rounded=0;edgeStyle=orthogonalEdgeStyle;curved=0;rounded=0;" edge="1" parent="1">
          <mxGeometry x="0.0588" relative="1" as="geometry">
            <mxPoint x="820" y="505" as="sourcePoint" />
            <Array as="points">
              <mxPoint x="850" y="535" />
            </Array>
            <mxPoint x="825" y="535" as="targetPoint" />
            <mxPoint as="offset" />
          </mxGeometry>
        </mxCell>
        <mxCell id="Of7o2EQ1QcCwlkbmsnM9-34" value="" style="shape=umlLifeline;perimeter=lifelinePerimeter;whiteSpace=wrap;html=1;container=1;dropTarget=0;collapsible=0;recursiveResize=0;outlineConnect=0;portConstraint=eastwest;newEdgeStyle={&quot;edgeStyle&quot;:&quot;elbowEdgeStyle&quot;,&quot;elbow&quot;:&quot;vertical&quot;,&quot;curved&quot;:0,&quot;rounded&quot;:0};participant=umlBoundary;" vertex="1" parent="1">
          <mxGeometry x="960" y="70" width="50" height="1400" as="geometry" />
        </mxCell>
        <mxCell id="Of7o2EQ1QcCwlkbmsnM9-37" value="" style="html=1;points=[];perimeter=orthogonalPerimeter;outlineConnect=0;targetShapes=umlLifeline;portConstraint=eastwest;newEdgeStyle={&quot;edgeStyle&quot;:&quot;elbowEdgeStyle&quot;,&quot;elbow&quot;:&quot;vertical&quot;,&quot;curved&quot;:0,&quot;rounded&quot;:0};" vertex="1" parent="Of7o2EQ1QcCwlkbmsnM9-34">
          <mxGeometry x="20" y="510" width="10" height="90" as="geometry" />
        </mxCell>
        <mxCell id="Of7o2EQ1QcCwlkbmsnM9-36" value="display_pharmacies()" style="html=1;verticalAlign=bottom;startArrow=oval;startFill=1;endArrow=block;startSize=8;edgeStyle=elbowEdgeStyle;elbow=vertical;curved=0;rounded=0;" edge="1" parent="1" source="Of7o2EQ1QcCwlkbmsnM9-28" target="Of7o2EQ1QcCwlkbmsnM9-34">
          <mxGeometry width="60" relative="1" as="geometry">
            <mxPoint x="910" y="580" as="sourcePoint" />
            <mxPoint x="970" y="580" as="targetPoint" />
            <Array as="points">
              <mxPoint x="940" y="580" />
            </Array>
          </mxGeometry>
        </mxCell>
        <mxCell id="Of7o2EQ1QcCwlkbmsnM9-38" value="select_pharmacy()" style="html=1;verticalAlign=bottom;startArrow=oval;startFill=1;endArrow=block;startSize=8;edgeStyle=elbowEdgeStyle;elbow=vertical;curved=0;rounded=0;" edge="1" parent="1" source="Of7o2EQ1QcCwlkbmsnM9-1" target="Of7o2EQ1QcCwlkbmsnM9-37">
          <mxGeometry width="60" relative="1" as="geometry">
            <mxPoint x="115" y="580" as="sourcePoint" />
            <mxPoint x="175" y="580" as="targetPoint" />
          </mxGeometry>
        </mxCell>
        <mxCell id="Of7o2EQ1QcCwlkbmsnM9-39" value="Οθόνη Επιλογής&lt;br&gt;&amp;nbsp;Φαρμακείου" style="text;html=1;align=center;verticalAlign=middle;resizable=0;points=[];autosize=1;strokeColor=none;fillColor=none;" vertex="1" parent="1">
          <mxGeometry x="930" y="30" width="110" height="40" as="geometry" />
        </mxCell>
        <mxCell id="Of7o2EQ1QcCwlkbmsnM9-40" value="" style="shape=umlLifeline;perimeter=lifelinePerimeter;whiteSpace=wrap;html=1;container=1;dropTarget=0;collapsible=0;recursiveResize=0;outlineConnect=0;portConstraint=eastwest;newEdgeStyle={&quot;edgeStyle&quot;:&quot;elbowEdgeStyle&quot;,&quot;elbow&quot;:&quot;vertical&quot;,&quot;curved&quot;:0,&quot;rounded&quot;:0};participant=umlEntity;" vertex="1" parent="1">
          <mxGeometry x="1110" y="70" width="40" height="1350" as="geometry" />
        </mxCell>
        <mxCell id="Of7o2EQ1QcCwlkbmsnM9-44" value="" style="html=1;points=[];perimeter=orthogonalPerimeter;outlineConnect=0;targetShapes=umlLifeline;portConstraint=eastwest;newEdgeStyle={&quot;edgeStyle&quot;:&quot;elbowEdgeStyle&quot;,&quot;elbow&quot;:&quot;vertical&quot;,&quot;curved&quot;:0,&quot;rounded&quot;:0};" vertex="1" parent="Of7o2EQ1QcCwlkbmsnM9-40">
          <mxGeometry x="15" y="600" width="10" height="180" as="geometry" />
        </mxCell>
        <mxCell id="Of7o2EQ1QcCwlkbmsnM9-68" value="" style="html=1;points=[];perimeter=orthogonalPerimeter;outlineConnect=0;targetShapes=umlLifeline;portConstraint=eastwest;newEdgeStyle={&quot;edgeStyle&quot;:&quot;elbowEdgeStyle&quot;,&quot;elbow&quot;:&quot;vertical&quot;,&quot;curved&quot;:0,&quot;rounded&quot;:0};" vertex="1" parent="Of7o2EQ1QcCwlkbmsnM9-40">
          <mxGeometry x="15" y="1090" width="10" height="90" as="geometry" />
        </mxCell>
        <mxCell id="Of7o2EQ1QcCwlkbmsnM9-41" value="καλάθι" style="text;html=1;align=center;verticalAlign=middle;resizable=0;points=[];autosize=1;strokeColor=none;fillColor=none;" vertex="1" parent="1">
          <mxGeometry x="1100" y="35" width="60" height="30" as="geometry" />
        </mxCell>
        <mxCell id="Of7o2EQ1QcCwlkbmsnM9-42" value="add_to_basket()" style="html=1;verticalAlign=bottom;startArrow=oval;startFill=1;endArrow=block;startSize=8;edgeStyle=elbowEdgeStyle;elbow=vertical;curved=0;rounded=0;" edge="1" parent="1" source="Of7o2EQ1QcCwlkbmsnM9-37" target="Of7o2EQ1QcCwlkbmsnM9-40">
          <mxGeometry width="60" relative="1" as="geometry">
            <mxPoint x="1020" y="670" as="sourcePoint" />
            <mxPoint x="1080" y="670" as="targetPoint" />
            <Array as="points">
              <mxPoint x="1080" y="670" />
            </Array>
          </mxGeometry>
        </mxCell>
        <mxCell id="Of7o2EQ1QcCwlkbmsnM9-45" value="check_percentage()" style="html=1;verticalAlign=bottom;endArrow=open;dashed=1;endSize=8;edgeStyle=elbowEdgeStyle;elbow=vertical;curved=0;rounded=0;" edge="1" parent="1" source="Of7o2EQ1QcCwlkbmsnM9-44" target="Of7o2EQ1QcCwlkbmsnM9-24">
          <mxGeometry x="0.0011" relative="1" as="geometry">
            <mxPoint x="1110" y="750" as="sourcePoint" />
            <mxPoint x="1030" y="750" as="targetPoint" />
            <Array as="points">
              <mxPoint x="890" y="750" />
            </Array>
            <mxPoint as="offset" />
          </mxGeometry>
        </mxCell>
        <mxCell id="Of7o2EQ1QcCwlkbmsnM9-46" value="frame" style="shape=umlFrame;whiteSpace=wrap;html=1;pointerEvents=0;fillColor=#f8cecc;strokeColor=#b85450;" vertex="1" parent="1">
          <mxGeometry x="10" y="770" width="1280" height="500" as="geometry" />
        </mxCell>
        <mxCell id="Of7o2EQ1QcCwlkbmsnM9-47" value="" style="html=1;points=[];perimeter=orthogonalPerimeter;outlineConnect=0;targetShapes=umlLifeline;portConstraint=eastwest;newEdgeStyle={&quot;edgeStyle&quot;:&quot;elbowEdgeStyle&quot;,&quot;elbow&quot;:&quot;vertical&quot;,&quot;curved&quot;:0,&quot;rounded&quot;:0};" vertex="1" parent="1">
          <mxGeometry x="675" y="750" width="10" height="60" as="geometry" />
        </mxCell>
        <mxCell id="Of7o2EQ1QcCwlkbmsnM9-48" value="right code" style="text;html=1;align=center;verticalAlign=middle;resizable=0;points=[];autosize=1;strokeColor=none;fillColor=none;" vertex="1" parent="1">
          <mxGeometry x="5" y="330" width="80" height="30" as="geometry" />
        </mxCell>
        <mxCell id="Of7o2EQ1QcCwlkbmsnM9-49" value="make_sum()" style="html=1;verticalAlign=bottom;startArrow=oval;startFill=1;endArrow=block;startSize=8;edgeStyle=elbowEdgeStyle;elbow=vertical;curved=0;rounded=0;" edge="1" parent="1" source="Of7o2EQ1QcCwlkbmsnM9-47" target="Of7o2EQ1QcCwlkbmsnM9-40">
          <mxGeometry width="60" relative="1" as="geometry">
            <mxPoint x="900" y="810" as="sourcePoint" />
            <mxPoint x="960" y="810" as="targetPoint" />
            <Array as="points">
              <mxPoint x="1040" y="810" />
            </Array>
          </mxGeometry>
        </mxCell>
        <mxCell id="Of7o2EQ1QcCwlkbmsnM9-51" value="" style="shape=umlLifeline;perimeter=lifelinePerimeter;whiteSpace=wrap;html=1;container=1;dropTarget=0;collapsible=0;recursiveResize=0;outlineConnect=0;portConstraint=eastwest;newEdgeStyle={&quot;edgeStyle&quot;:&quot;elbowEdgeStyle&quot;,&quot;elbow&quot;:&quot;vertical&quot;,&quot;curved&quot;:0,&quot;rounded&quot;:0};participant=umlEntity;" vertex="1" parent="1">
          <mxGeometry x="1235" y="70" width="40" height="1370" as="geometry" />
        </mxCell>
        <mxCell id="Of7o2EQ1QcCwlkbmsnM9-55" value="" style="html=1;points=[];perimeter=orthogonalPerimeter;outlineConnect=0;targetShapes=umlLifeline;portConstraint=eastwest;newEdgeStyle={&quot;edgeStyle&quot;:&quot;elbowEdgeStyle&quot;,&quot;elbow&quot;:&quot;vertical&quot;,&quot;curved&quot;:0,&quot;rounded&quot;:0};" vertex="1" parent="Of7o2EQ1QcCwlkbmsnM9-51">
          <mxGeometry x="15" y="780" width="10" height="20" as="geometry" />
        </mxCell>
        <mxCell id="Of7o2EQ1QcCwlkbmsnM9-52" value="Παραγγελίες" style="text;html=1;align=center;verticalAlign=middle;resizable=0;points=[];autosize=1;strokeColor=none;fillColor=none;" vertex="1" parent="1">
          <mxGeometry x="1210" y="35" width="90" height="30" as="geometry" />
        </mxCell>
        <mxCell id="Of7o2EQ1QcCwlkbmsnM9-53" value="place_order()" style="html=1;verticalAlign=bottom;startArrow=oval;startFill=1;endArrow=block;startSize=8;edgeStyle=elbowEdgeStyle;elbow=vertical;curved=0;rounded=0;" edge="1" parent="1" source="Of7o2EQ1QcCwlkbmsnM9-40" target="Of7o2EQ1QcCwlkbmsnM9-51">
          <mxGeometry width="60" relative="1" as="geometry">
            <mxPoint x="1180" y="850" as="sourcePoint" />
            <mxPoint x="1240" y="850" as="targetPoint" />
            <Array as="points">
              <mxPoint x="1210" y="850" />
            </Array>
          </mxGeometry>
        </mxCell>
        <mxCell id="Of7o2EQ1QcCwlkbmsnM9-56" value="" style="html=1;points=[];perimeter=orthogonalPerimeter;outlineConnect=0;targetShapes=umlLifeline;portConstraint=eastwest;newEdgeStyle={&quot;edgeStyle&quot;:&quot;elbowEdgeStyle&quot;,&quot;elbow&quot;:&quot;vertical&quot;,&quot;curved&quot;:0,&quot;rounded&quot;:0};" vertex="1" parent="1">
          <mxGeometry x="675" y="910" width="10" height="60" as="geometry" />
        </mxCell>
        <mxCell id="Of7o2EQ1QcCwlkbmsnM9-60" value="make_new_basket" style="html=1;align=left;spacingLeft=2;endArrow=block;rounded=0;edgeStyle=orthogonalEdgeStyle;curved=0;rounded=0;" edge="1" parent="1">
          <mxGeometry relative="1" as="geometry">
            <mxPoint x="680" y="910" as="sourcePoint" />
            <Array as="points">
              <mxPoint x="710" y="910" />
              <mxPoint x="710" y="940" />
            </Array>
            <mxPoint x="685" y="940" as="targetPoint" />
          </mxGeometry>
        </mxCell>
        <mxCell id="Of7o2EQ1QcCwlkbmsnM9-61" value="find_pharmacies()" style="html=1;verticalAlign=bottom;startArrow=oval;startFill=1;endArrow=block;startSize=8;edgeStyle=elbowEdgeStyle;elbow=vertical;curved=0;rounded=0;" edge="1" parent="1" source="Of7o2EQ1QcCwlkbmsnM9-56" target="Of7o2EQ1QcCwlkbmsnM9-28">
          <mxGeometry width="60" relative="1" as="geometry">
            <mxPoint x="710" y="970" as="sourcePoint" />
            <mxPoint x="770" y="970" as="targetPoint" />
            <Array as="points">
              <mxPoint x="790" y="970" />
            </Array>
          </mxGeometry>
        </mxCell>
        <mxCell id="Of7o2EQ1QcCwlkbmsnM9-62" value="get_sum_for_each()" style="html=1;align=left;spacingLeft=2;endArrow=block;rounded=0;edgeStyle=orthogonalEdgeStyle;curved=0;rounded=0;" edge="1" parent="1">
          <mxGeometry x="0.0588" relative="1" as="geometry">
            <mxPoint x="820" y="990" as="sourcePoint" />
            <Array as="points">
              <mxPoint x="850" y="1020" />
            </Array>
            <mxPoint x="825" y="1020" as="targetPoint" />
            <mxPoint as="offset" />
          </mxGeometry>
        </mxCell>
        <mxCell id="Of7o2EQ1QcCwlkbmsnM9-63" value="" style="html=1;points=[];perimeter=orthogonalPerimeter;outlineConnect=0;targetShapes=umlLifeline;portConstraint=eastwest;newEdgeStyle={&quot;edgeStyle&quot;:&quot;elbowEdgeStyle&quot;,&quot;elbow&quot;:&quot;vertical&quot;,&quot;curved&quot;:0,&quot;rounded&quot;:0};" vertex="1" parent="1">
          <mxGeometry x="815" y="970" width="10" height="100" as="geometry" />
        </mxCell>
        <mxCell id="Of7o2EQ1QcCwlkbmsnM9-64" value="display_pharmacies()" style="html=1;verticalAlign=bottom;startArrow=oval;startFill=1;endArrow=block;startSize=8;edgeStyle=elbowEdgeStyle;elbow=vertical;curved=0;rounded=0;" edge="1" parent="1" source="Of7o2EQ1QcCwlkbmsnM9-63" target="Of7o2EQ1QcCwlkbmsnM9-34">
          <mxGeometry width="60" relative="1" as="geometry">
            <mxPoint x="840" y="1069" as="sourcePoint" />
            <mxPoint x="1005" y="1069" as="targetPoint" />
            <Array as="points">
              <mxPoint x="940" y="1070" />
              <mxPoint x="960" y="1069" />
            </Array>
          </mxGeometry>
        </mxCell>
        <mxCell id="Of7o2EQ1QcCwlkbmsnM9-65" value="" style="html=1;points=[];perimeter=orthogonalPerimeter;outlineConnect=0;targetShapes=umlLifeline;portConstraint=eastwest;newEdgeStyle={&quot;edgeStyle&quot;:&quot;elbowEdgeStyle&quot;,&quot;elbow&quot;:&quot;vertical&quot;,&quot;curved&quot;:0,&quot;rounded&quot;:0};" vertex="1" parent="1">
          <mxGeometry x="980" y="1070" width="10" height="90" as="geometry" />
        </mxCell>
        <mxCell id="Of7o2EQ1QcCwlkbmsnM9-66" value="select_pharmacy()" style="html=1;verticalAlign=bottom;startArrow=oval;startFill=1;endArrow=block;startSize=8;edgeStyle=elbowEdgeStyle;elbow=vertical;curved=0;rounded=0;" edge="1" parent="1" source="Of7o2EQ1QcCwlkbmsnM9-1" target="Of7o2EQ1QcCwlkbmsnM9-65">
          <mxGeometry width="60" relative="1" as="geometry">
            <mxPoint x="70" y="1114.5" as="sourcePoint" />
            <mxPoint x="970" y="1114.5" as="targetPoint" />
            <Array as="points">
              <mxPoint x="890" y="1110" />
              <mxPoint x="120" y="1100" />
              <mxPoint x="80" y="1110" />
            </Array>
          </mxGeometry>
        </mxCell>
        <mxCell id="Of7o2EQ1QcCwlkbmsnM9-67" value="add_to_basket()" style="html=1;verticalAlign=bottom;startArrow=oval;startFill=1;endArrow=block;startSize=8;edgeStyle=elbowEdgeStyle;elbow=vertical;curved=0;rounded=0;" edge="1" parent="1" source="Of7o2EQ1QcCwlkbmsnM9-65" target="Of7o2EQ1QcCwlkbmsnM9-40">
          <mxGeometry width="60" relative="1" as="geometry">
            <mxPoint x="1000" y="1160" as="sourcePoint" />
            <mxPoint x="1120" y="1160" as="targetPoint" />
            <Array as="points">
              <mxPoint x="1090" y="1160" />
            </Array>
          </mxGeometry>
        </mxCell>
        <mxCell id="Of7o2EQ1QcCwlkbmsnM9-69" value="check_percentage()" style="html=1;verticalAlign=bottom;endArrow=open;dashed=1;endSize=8;edgeStyle=elbowEdgeStyle;elbow=vertical;curved=0;rounded=0;" edge="1" parent="1" source="Of7o2EQ1QcCwlkbmsnM9-68" target="Of7o2EQ1QcCwlkbmsnM9-24">
          <mxGeometry x="0.0011" relative="1" as="geometry">
            <mxPoint x="1030" y="1230" as="sourcePoint" />
            <mxPoint x="690" y="1230" as="targetPoint" />
            <Array as="points">
              <mxPoint x="980" y="1200" />
              <mxPoint x="795" y="1230" />
            </Array>
            <mxPoint as="offset" />
          </mxGeometry>
        </mxCell>
        <mxCell id="Of7o2EQ1QcCwlkbmsnM9-70" value="" style="endArrow=none;html=1;rounded=0;entryX=1.001;entryY=0.228;entryDx=0;entryDy=0;entryPerimeter=0;exitX=-0.003;exitY=0.233;exitDx=0;exitDy=0;exitPerimeter=0;fillColor=#f8cecc;strokeColor=#b85450;" edge="1" parent="1" source="Of7o2EQ1QcCwlkbmsnM9-46" target="Of7o2EQ1QcCwlkbmsnM9-46">
          <mxGeometry width="50" height="50" relative="1" as="geometry">
            <mxPoint x="1010" y="1070" as="sourcePoint" />
            <mxPoint x="1060" y="1020" as="targetPoint" />
          </mxGeometry>
        </mxCell>
      </root>
    </mxGraphModel>
  </diagram>
</mxfile>
